<?xml version="1.0" encoding="UTF-8" standalone="no"?>
<!DOCTYPE svg PUBLIC "-//W3C//DTD SVG 20010904//EN"
              "http://www.w3.org/TR/2001/REC-SVG-20010904/DTD/svg10.dtd">

<svg xmlns="http://www.w3.org/2000/svg"
     width="144.51mm" height="144.51mm"
     viewBox="0 0 512 512">
  <path id="Auswahl"
        fill="#0072bc" stroke="#0072bc" stroke-width="1"
        d="M 0.00,56.00
           C 0.00,56.00 0.00,393.00 0.00,393.00
             0.00,395.90 -0.42,399.63 1.87,401.80
             3.78,403.61 11.74,406.03 14.58,407.03
             14.58,407.03 52.00,417.30 52.00,417.30
             52.00,417.30 78.83,423.45 78.83,423.45
             78.83,423.45 137.00,438.67 137.00,438.67
             137.00,438.67 145.91,440.22 145.91,440.22
             145.91,440.22 166.28,445.57 166.28,445.57
             166.28,445.57 171.83,446.46 171.83,446.46
             171.83,446.46 218.96,457.11 218.96,457.11
             224.51,457.92 221.77,458.91 230.00,459.00
             230.00,459.00 230.00,408.00 230.00,408.00
             230.00,408.00 232.00,393.00 232.00,393.00
             232.00,393.00 232.00,255.00 232.00,255.00
             232.00,255.00 160.00,255.00 160.00,255.00
             160.00,255.00 160.00,206.00 160.00,206.00
             160.00,206.00 215.00,206.00 215.00,206.00
             217.72,205.96 226.15,204.38 228.13,202.71
             229.64,201.44 231.96,187.60 232.00,185.00
             232.00,185.00 232.00,131.00 232.00,131.00
             231.99,127.37 230.65,117.12 228.40,114.47
             225.67,111.25 218.07,109.28 214.04,108.17
             214.04,108.17 180.28,99.27 180.28,99.27
             180.28,99.27 155.00,92.44 155.00,92.44
             155.00,92.44 136.17,88.55 136.17,88.55
             136.17,88.55 78.00,73.33 78.00,73.33
             78.00,73.33 58.17,69.54 58.17,69.54
             58.17,69.54 30.00,62.45 30.00,62.45
             30.00,62.45 24.17,61.54 24.17,61.54
             24.17,61.54 0.00,56.00 0.00,56.00 Z
           M 282.00,111.00
           C 282.00,111.00 282.00,206.00 282.00,206.00
             282.00,206.00 352.00,206.00 352.00,206.00
             352.00,206.00 352.00,255.00 352.00,255.00
             352.00,255.00 295.00,255.00 295.00,255.00
             295.00,255.00 280.00,257.00 280.00,257.00
             280.00,257.00 280.00,286.00 280.00,286.00
             280.00,286.00 282.00,302.00 282.00,302.00
             282.00,302.00 282.00,459.00 282.00,459.00
             290.01,458.91 287.19,458.21 292.09,457.26
             292.09,457.26 303.00,455.78 303.00,455.78
             303.00,455.78 328.83,449.78 328.83,449.78
             328.83,449.78 341.09,446.26 341.09,446.26
             341.09,446.26 366.09,440.22 366.09,440.22
             366.09,440.22 382.83,436.81 382.83,436.81
             382.83,436.81 425.16,425.46 425.16,425.46
             425.16,425.46 461.42,417.03 461.42,417.03
             461.42,417.03 498.27,406.71 498.27,406.71
             511.35,402.22 511.98,402.93 512.00,393.00
             512.00,393.00 512.00,56.00 512.00,56.00
             512.00,56.00 461.92,67.74 461.92,67.74
             461.92,67.74 444.91,71.74 444.91,71.74
             444.91,71.74 434.00,73.33 434.00,73.33
             434.00,73.33 383.84,86.54 383.84,86.54
             383.84,86.54 342.00,96.43 342.00,96.43
             342.00,96.43 298.91,107.78 298.91,107.78
             298.91,107.78 290.00,109.22 290.00,109.22
             290.00,109.22 282.00,111.00 282.00,111.00 Z" />
</svg>
