<?xml version="1.0" encoding="UTF-8" standalone="no"?>
<!DOCTYPE svg PUBLIC "-//W3C//DTD SVG 20010904//EN"
              "http://www.w3.org/TR/2001/REC-SVG-20010904/DTD/svg10.dtd">

<svg xmlns="http://www.w3.org/2000/svg"
     width="270.899mm" height="135.45mm"
     viewBox="0 0 1024 512">
  <path id="Auswahl"
        fill="#2872fa" stroke="none" stroke-width="0"
        d="M 123.00,152.00
           C 123.00,152.00 123.00,324.00 123.00,324.00
             123.00,324.00 124.02,331.49 124.02,331.49
             124.02,331.49 132.00,334.87 132.00,334.87
             132.00,334.87 150.00,339.37 150.00,339.37
             150.00,339.37 210.00,354.37 210.00,354.37
             210.00,354.37 243.00,362.00 243.00,362.00
             243.00,362.00 243.00,339.00 243.00,339.00
             243.00,339.00 244.00,324.00 244.00,324.00
             244.00,324.00 244.00,257.00 244.00,257.00
             244.00,257.00 206.00,257.00 206.00,257.00
             206.00,257.00 206.00,228.00 206.00,228.00
             206.00,228.00 237.00,228.00 237.00,228.00
             237.00,228.00 242.98,226.40 242.98,226.40
             242.98,226.40 244.00,216.00 244.00,216.00
             244.00,216.00 244.00,190.00 244.00,190.00
             244.00,190.00 242.98,182.51 242.98,182.51
             242.98,182.51 235.00,179.13 235.00,179.13
             235.00,179.13 217.00,174.63 217.00,174.63
             217.00,174.63 159.00,160.12 159.00,160.12
             159.00,160.12 123.00,152.00 123.00,152.00 Z
           M 273.00,181.00
           C 273.00,181.00 273.00,228.00 273.00,228.00
             273.00,228.00 310.00,228.00 310.00,228.00
             310.00,228.00 310.00,257.00 310.00,257.00
             301.60,257.00 278.72,256.09 272.00,258.00
             272.00,258.00 273.00,294.00 273.00,294.00
             273.00,294.00 273.00,362.00 273.00,362.00
             273.00,362.00 306.00,354.37 306.00,354.37
             306.00,354.37 366.00,339.37 366.00,339.37
             366.00,339.37 384.00,334.87 384.00,334.87
             384.00,334.87 391.98,331.49 391.98,331.49
             391.98,331.49 393.00,324.00 393.00,324.00
             393.00,324.00 393.00,152.00 393.00,152.00
             393.00,152.00 355.00,160.63 355.00,160.63
             355.00,160.63 302.00,173.87 302.00,173.87
             302.00,173.87 273.00,181.00 273.00,181.00 Z
           M 417.00,202.00
           C 417.00,202.00 422.00,202.00 422.00,202.00
             424.01,202.00 426.86,202.13 428.72,201.44
             431.54,200.40 433.89,197.03 437.98,198.08
             441.29,198.93 443.66,202.37 439.84,204.57
             434.92,207.40 420.04,204.15 416.23,216.01
             415.70,217.65 415.42,219.28 415.46,221.00
             415.83,236.91 437.81,237.81 443.00,228.00
             443.00,228.00 444.00,233.00 444.00,233.00
             444.00,233.00 456.00,233.00 456.00,233.00
             456.00,233.00 456.00,204.00 456.00,204.00
             455.95,200.20 455.87,197.25 453.49,194.04
             445.95,183.89 420.08,183.18 417.00,202.00 Z
           M 576.00,220.00
           C 572.95,219.45 568.18,218.52 565.17,219.29
             561.94,220.11 560.48,222.80 557.00,223.53
             550.88,224.80 547.10,219.18 546.00,214.00
             546.00,214.00 576.00,214.00 576.00,214.00
             576.00,205.57 576.10,197.70 568.82,191.79
             557.40,182.51 535.25,186.89 533.17,206.00
             532.21,214.82 533.37,224.72 541.04,230.35
             548.50,235.83 565.11,235.57 571.78,228.79
             574.42,226.10 575.16,223.53 576.00,220.00 Z
           M 622.00,202.00
           C 621.07,198.04 619.98,194.34 616.79,191.56
             609.56,185.24 591.82,185.39 585.65,193.19
             583.77,195.55 583.17,198.05 583.05,201.00
             582.62,210.76 588.56,213.40 597.00,215.20
             599.75,215.78 606.79,216.61 607.38,220.02
             607.91,223.06 603.17,224.04 601.00,223.64
             595.53,222.63 597.30,218.67 588.00,219.02
             586.07,219.09 583.49,219.13 582.70,221.31
             580.92,226.29 588.00,231.50 592.00,232.89
             598.16,235.04 610.42,234.56 615.98,231.01
             622.99,226.53 625.35,216.36 618.78,210.42
             613.64,205.76 602.81,206.48 599.29,203.28
             595.91,200.21 600.17,196.84 603.99,197.84
             606.36,198.46 608.03,200.59 610.28,201.44
             612.50,202.28 619.30,202.00 622.00,202.00 Z
           M 647.00,187.44
           C 640.74,188.61 636.63,189.83 632.39,195.04
             625.66,203.32 626.49,221.19 634.21,228.67
             639.77,234.06 648.66,234.96 656.00,233.67
             674.36,230.45 676.11,206.32 667.89,195.17
             663.15,188.74 654.61,186.53 647.00,187.44 Z
           M 693.00,194.00
           C 693.00,194.00 692.00,188.00 692.00,188.00
             692.00,188.00 679.00,188.00 679.00,188.00
             679.00,188.00 679.00,233.00 679.00,233.00
             679.00,233.00 693.11,233.00 693.11,233.00
             693.11,233.00 693.11,206.00 693.11,206.00
             693.78,202.98 696.08,199.13 699.58,199.11
             703.02,199.10 705.24,203.07 705.89,206.00
             705.89,206.00 705.89,233.00 705.89,233.00
             705.89,233.00 719.11,233.00 719.11,233.00
             719.11,233.00 719.11,206.00 719.11,206.00
             719.78,202.97 722.08,199.13 725.58,199.11
             730.65,199.10 731.92,205.14 732.00,209.00
             732.00,209.00 732.00,233.00 732.00,233.00
             732.00,233.00 745.00,233.00 745.00,233.00
             745.00,233.00 744.44,197.00 744.44,197.00
             742.62,190.07 735.86,186.51 729.00,187.20
             723.50,187.75 720.32,191.02 716.00,194.00
             711.18,184.40 698.24,185.15 693.00,194.00 Z
           M 796.00,220.00
           C 792.95,219.45 788.18,218.52 785.17,219.29
             781.94,220.11 780.48,222.80 777.00,223.53
             770.88,224.80 767.10,219.18 766.00,214.00
             766.00,214.00 796.00,214.00 796.00,214.00
             796.00,205.57 796.10,197.70 788.82,191.79
             777.40,182.51 755.25,186.89 753.17,206.00
             752.21,214.82 753.37,224.72 761.04,230.35
             768.50,235.83 785.11,235.57 791.78,228.79
             794.42,226.10 795.16,223.53 796.00,220.00 Z
           M 462.00,188.00
           C 462.00,188.00 471.00,222.00 471.00,222.00
             473.79,231.74 472.89,232.88 480.00,233.00
             480.00,233.00 489.00,233.00 489.00,233.00
             489.00,233.00 495.00,207.00 495.00,207.00
             495.00,207.00 503.00,233.00 503.00,233.00
             503.00,233.00 518.00,233.00 518.00,233.00
             518.00,233.00 530.00,188.00 530.00,188.00
             530.00,188.00 516.73,188.99 516.73,188.99
             516.73,188.99 514.12,196.00 514.12,196.00
             514.12,196.00 510.00,216.00 510.00,216.00
             510.00,216.00 503.00,188.00 503.00,188.00
             503.00,188.00 489.00,188.00 489.00,188.00
             489.00,188.00 483.00,216.00 483.00,216.00
             483.00,216.00 476.00,188.00 476.00,188.00
             476.00,188.00 462.00,188.00 462.00,188.00 Z
           M 564.00,206.00
           C 564.00,206.00 546.00,206.00 546.00,206.00
             549.03,195.84 557.92,196.74 561.30,200.43
             562.71,201.96 563.31,204.09 564.00,206.00 Z
           M 648.04,198.45
           C 662.62,197.00 661.59,220.06 651.98,223.22
             647.40,224.73 643.74,220.96 642.26,217.00
             639.86,210.56 641.24,201.35 648.04,198.45 Z
           M 784.00,206.00
           C 784.00,206.00 766.00,206.00 766.00,206.00
             769.03,195.84 777.92,196.74 781.30,200.43
             782.71,201.96 783.31,204.09 784.00,206.00 Z
           M 443.00,213.00
           C 442.97,215.32 443.12,217.83 441.98,219.95
             440.21,223.21 435.70,225.55 432.06,224.22
             428.00,222.74 427.60,218.50 431.23,216.16
             432.34,215.44 433.74,215.13 435.00,214.82
             435.00,214.82 443.00,213.00 443.00,213.00 Z
           M 478.00,269.82
           C 467.11,271.72 471.06,282.44 478.00,282.75
             485.91,283.10 488.42,271.35 478.00,269.82 Z
           M 418.00,273.00
           C 418.00,273.00 418.00,333.00 418.00,333.00
             418.00,333.00 445.00,333.00 445.00,333.00
             450.01,332.98 453.62,332.78 457.96,329.87
             468.35,322.89 466.94,304.96 453.00,302.00
             456.05,300.09 459.11,298.32 460.83,294.98
             464.52,287.81 461.04,278.48 454.00,275.19
             446.47,271.66 427.04,273.00 418.00,273.00 Z
           M 494.00,273.00
           C 494.00,273.00 494.00,333.00 494.00,333.00
             494.00,333.00 507.00,333.00 507.00,333.00
             507.00,333.00 507.00,328.00 507.00,328.00
             508.84,329.89 510.58,331.80 513.04,332.91
             519.52,335.84 529.01,333.51 533.36,327.91
             539.22,320.38 539.88,302.80 534.35,295.01
             528.19,286.34 513.51,283.02 508.00,294.00
             508.00,294.00 507.00,273.00 507.00,273.00
             507.00,273.00 494.00,273.00 494.00,273.00 Z
           M 545.00,273.00
           C 545.00,273.00 545.00,333.00 545.00,333.00
             545.00,333.00 559.00,333.00 559.00,333.00
             559.00,333.00 559.00,273.00 559.00,273.00
             559.00,273.00 545.00,273.00 545.00,273.00 Z
           M 431.00,298.00
           C 431.00,298.00 431.00,284.00 431.00,284.00
             434.72,284.00 441.73,283.56 444.87,285.31
             450.13,288.26 448.77,294.25 443.96,296.83
             440.93,298.44 434.55,298.00 431.00,298.00 Z
           M 609.00,320.00
           C 605.95,319.45 601.18,318.52 598.17,319.29
             594.94,320.11 593.48,322.80 590.00,323.53
             583.88,324.80 580.10,319.18 579.00,314.00
             579.00,314.00 609.00,314.00 609.00,314.00
             609.00,305.57 609.10,297.70 601.82,291.79
             590.40,282.51 568.25,286.89 566.17,306.00
             565.21,314.82 566.37,324.72 574.04,330.35
             581.50,335.83 598.11,335.57 604.78,328.79
             607.42,326.10 608.16,323.53 609.00,320.00 Z
           M 471.00,288.00
           C 471.00,288.00 471.00,333.00 471.00,333.00
             471.00,333.00 485.00,333.00 485.00,333.00
             485.00,333.00 485.00,288.00 485.00,288.00
             485.00,288.00 471.00,288.00 471.00,288.00 Z
           M 514.02,298.47
           C 527.97,297.82 527.02,320.12 517.96,322.57
             506.12,325.76 502.03,303.21 514.02,298.47 Z
           M 597.00,306.00
           C 597.00,306.00 579.00,306.00 579.00,306.00
             582.03,295.84 590.92,296.74 594.30,300.43
             595.71,301.96 596.31,304.09 597.00,306.00 Z
           M 431.00,322.00
           C 431.00,322.00 431.00,307.00 431.00,307.00
             435.76,307.00 442.80,306.43 446.88,309.09
             451.39,312.04 451.85,318.03 446.88,320.83
             443.82,322.56 434.84,322.00 431.00,322.00 Z" />
</svg>
