<?xml version="1.0" encoding="UTF-8"?>
<!DOCTYPE svg  PUBLIC '-//W3C//DTD SVG 20010904//EN'  'http://www.w3.org/TR/2001/REC-SVG-20010904/DTD/svg10.dtd'>
<svg width="144.51mm" height="144.51mm" viewBox="0 0 512 512" xmlns="http://www.w3.org/2000/svg">
<path d="m0 56v337c0 2.9-0.42 6.63 1.87 8.8 1.91 1.81 9.87 4.23 12.71 5.23l37.42 10.27 26.83 6.15 58.17 15.22 8.91 1.55s20.37 5.35 20.37 5.35 5.55 0.89 5.55 0.89l47.13 10.65c5.55 0.81 2.81 1.8 11.04 1.89v-51l2-15v-138h-72v-49h55c2.72-0.04 11.15-1.62 13.13-3.29 1.51-1.27 3.83-15.11 3.87-17.71v-54c-0.01-3.63-1.35-13.88-3.6-16.53-2.73-3.22-10.33-5.19-14.36-6.3 0 0-33.76-8.9-33.76-8.9s-25.28-6.83-25.28-6.83-18.83-3.89-18.83-3.89l-58.17-15.22-19.83-3.79s-28.17-7.09-28.17-7.09-5.83-0.91-5.83-0.91-24.17-5.54-24.17-5.54zm282 55v95h70v49h-57l-15 2v29l2 16v157c8.01-0.09 5.19-0.79 10.09-1.74l10.91-1.48 25.83-6s12.26-3.52 12.26-3.52l25-6.04 16.74-3.41 42.33-11.35s36.26-8.43 36.26-8.43l36.85-10.32c13.08-4.49 13.71-3.78 13.73-13.71v-337l-50.08 11.74-17.01 4-10.91 1.59-50.16 13.21s-41.84 9.89-41.84 9.89l-43.09 11.35-8.91 1.44-8 1.78z" fill="#0072bc" stroke="#0072bc"/>
</svg>
